<?xml version="1.0" encoding="UTF-8" standalone="no"?>
<!-- Created with Inkscape (http://www.inkscape.org/) -->

<svg
   xmlns:dc="http://purl.org/dc/elements/1.1/"
   xmlns:cc="http://creativecommons.org/ns#"
   xmlns:rdf="http://www.w3.org/1999/02/22-rdf-syntax-ns#"
   xmlns:svg="http://www.w3.org/2000/svg"
   xmlns="http://www.w3.org/2000/svg"
   xmlns:sodipodi="http://sodipodi.sourceforge.net/DTD/sodipodi-0.dtd"
   xmlns:inkscape="http://www.inkscape.org/namespaces/inkscape"
   version="1.1"
   id="svg3705"
   xml:space="preserve"
   width="456.66666"
   height="402.66666"
   viewBox="0 0 456.66664 402.66664"
   sodipodi:docname="64520-OC0OOG-287.svg"
   inkscape:version="0.92.1 r15371"><metadata
     id="metadata3711"><rdf:RDF><cc:Work
         rdf:about=""><dc:format>image/svg+xml</dc:format><dc:type
           rdf:resource="http://purl.org/dc/dcmitype/StillImage" /><dc:title></dc:title></cc:Work></rdf:RDF></metadata><defs
     id="defs3709"><clipPath
       clipPathUnits="userSpaceOnUse"
       id="clipPath3725"><path
         d="M 0,800 H 800 V 0 H 0 Z"
         id="path3723"
         inkscape:connector-curvature="0" /></clipPath><clipPath
       clipPathUnits="userSpaceOnUse"
       id="clipPath3733"><path
         d="M 280.789,39.1585 H 519.211 V 16.0852 H 280.789 Z"
         id="path3731"
         inkscape:connector-curvature="0" /></clipPath><clipPath
       clipPathUnits="userSpaceOnUse"
       id="clipPath3873"><path
         d="M 0,800 H 800 V 0 H 0 Z"
         id="path3871"
         inkscape:connector-curvature="0" /></clipPath><clipPath
       clipPathUnits="userSpaceOnUse"
       id="clipPath3925"><path
         d="M 0,800 H 800 V 0 H 0 Z"
         id="path3923"
         inkscape:connector-curvature="0" /></clipPath><clipPath
       clipPathUnits="userSpaceOnUse"
       id="clipPath3989"><path
         d="M 0,800 H 800 V 0 H 0 Z"
         id="path3987"
         inkscape:connector-curvature="0" /></clipPath><clipPath
       clipPathUnits="userSpaceOnUse"
       id="clipPath4297"><path
         d="M 0,800 H 800 V 0 H 0 Z"
         id="path4295"
         inkscape:connector-curvature="0" /></clipPath><clipPath
       clipPathUnits="userSpaceOnUse"
       id="clipPath4347"><path
         d="M 0,800 H 800 V 0 H 0 Z"
         id="path4345"
         inkscape:connector-curvature="0" /></clipPath><clipPath
       clipPathUnits="userSpaceOnUse"
       id="clipPath4455"><path
         d="M 0,800 H 800 V 0 H 0 Z"
         id="path4453"
         inkscape:connector-curvature="0" /></clipPath><clipPath
       clipPathUnits="userSpaceOnUse"
       id="clipPath4497"><path
         d="M 149.465,275.929 H 275.423 V 391.411 H 149.465 Z"
         id="path4495"
         inkscape:connector-curvature="0" /></clipPath><clipPath
       clipPathUnits="userSpaceOnUse"
       id="clipPath4561"><path
         d="M 0,800 H 800 V 0 H 0 Z"
         id="path4559"
         inkscape:connector-curvature="0" /></clipPath><clipPath
       clipPathUnits="userSpaceOnUse"
       id="clipPath4625"><path
         d="M 0,800 H 800 V 0 H 0 Z"
         id="path4623"
         inkscape:connector-curvature="0" /></clipPath></defs><sodipodi:namedview
     pagecolor="#ffffff"
     bordercolor="#666666"
     borderopacity="1"
     objecttolerance="10"
     gridtolerance="10"
     guidetolerance="10"
     inkscape:pageopacity="0"
     inkscape:pageshadow="2"
     inkscape:window-width="1920"
     inkscape:window-height="1017"
     id="namedview3707"
     showgrid="false"
     fit-margin-top="0"
     fit-margin-left="0"
     fit-margin-right="0"
     fit-margin-bottom="0"
     inkscape:zoom="1"
     inkscape:cx="-66.296703"
     inkscape:cy="62.079433"
     inkscape:window-x="-8"
     inkscape:window-y="-8"
     inkscape:window-maximized="1"
     inkscape:current-layer="g3713" /><g
     id="g3713"
     inkscape:groupmode="layer"
     inkscape:label="64520-OC0OOG-287"
     transform="matrix(1.3333333,0,0,-1.3333333,0,1066.6666)"><path
       d="M 0,498.00001 H 342.49999 V 800 H 0 Z"
       style="fill:#fff9c4;fill-opacity:1;fill-rule:nonzero;stroke:none;stroke-width:0.40201637"
       id="path3715"
       inkscape:connector-curvature="0" /><path
       d="M 335.74999,504.00001 H 7.5000008 V 794.75 H 335.74999 Z"
       style="fill:#4e342e;fill-opacity:1;fill-rule:nonzero;stroke:none;stroke-width:0.3965745"
       id="path3717"
       inkscape:connector-curvature="0" /><g
       clip-path="url(#clipPath3989)"
       id="g3985"
       transform="translate(-436.50001,55.500001)"><g
         transform="translate(469.3186,252.3788)"
         id="g3991" /><g
         transform="translate(469.3186,214.4511)"
         id="g3995" /><g
         transform="translate(675.5057,252.3788)"
         id="g3999" /><g
         transform="translate(675.5057,214.4511)"
         id="g4003" /><g
         transform="translate(715.0694,664.2937)"
         id="g4007"><path
           inkscape:connector-curvature="0"
           id="path4009"
           style="fill:#fff9c4;fill-opacity:1;fill-rule:nonzero;stroke:none"
           d="m 0,0 c 3.333,-5.344 3.16,-9.294 1.17,-10.277 -2.04,-1.002 -5.016,1.081 -8.078,5.982 -2.936,4.861 -4.776,13.54 -4.874,13.586 C -11.795,9.38 -3.323,5.448 0,0" /></g><g
         transform="translate(727.8918,647.3037)"
         id="g4011"><path
           inkscape:connector-curvature="0"
           id="path4013"
           style="fill:#fff9c4;fill-opacity:1;fill-rule:nonzero;stroke:none"
           d="m 0,0 c -1.673,-4.728 -4.53,-5.488 -6.682,-3.576 -2.182,1.941 -3.051,5.848 -1.806,10.59 1.229,4.746 7.032,8.011 7.059,7.992 C -1.302,15.031 1.821,4.736 0,0" /></g><g
         transform="translate(713.2043,641.5358)"
         id="g4015"><path
           inkscape:connector-curvature="0"
           id="path4017"
           style="fill:#fff9c4;fill-opacity:1;fill-rule:nonzero;stroke:none"
           d="M 0,0 C 4.19,-1.919 6.939,-0.99 7.316,1.927 7.694,4.809 5.373,8.458 0.894,10.152 -3.59,11.834 -9.482,8.522 -9.482,8.552 -9.401,8.597 -4.107,1.984 0,0" /></g><g
         transform="translate(733.2471,629.2392)"
         id="g4019"><path
           inkscape:connector-curvature="0"
           id="path4021"
           style="fill:#fff9c4;fill-opacity:1;fill-rule:nonzero;stroke:none"
           d="m 0,0 c -2.435,-4.35 -5.37,-4.647 -7.169,-2.445 -1.823,2.234 -2.018,6.176 0.022,10.593 2.026,4.422 8.286,6.696 8.309,6.674 C 1.282,14.832 2.573,4.341 0,0" /></g><g
         transform="translate(717.8378,625.9057)"
         id="g4023"><path
           inkscape:connector-curvature="0"
           id="path4025"
           style="fill:#fff9c4;fill-opacity:1;fill-rule:nonzero;stroke:none"
           d="M 0,0 C 3.801,-2.526 6.662,-2.05 7.518,0.738 8.37,3.49 6.706,7.406 2.603,9.745 -1.504,12.072 -7.855,9.763 -7.85,9.791 -7.768,9.827 -3.715,2.581 0,0" /></g><g
         transform="translate(735.5708,610.7344)"
         id="g4027"><path
           inkscape:connector-curvature="0"
           id="path4029"
           style="fill:#fff9c4;fill-opacity:1;fill-rule:nonzero;stroke:none"
           d="m 0,0 c -3.093,-3.883 -6.033,-3.712 -7.457,-1.268 -1.442,2.479 -1.001,6.372 1.73,10.37 2.719,4.005 9.259,5.245 9.276,5.22 C 3.664,14.317 3.22,3.857 0,0" /></g><g
         transform="translate(719.8484,609.8947)"
         id="g4031"><path
           inkscape:connector-curvature="0"
           id="path4033"
           style="fill:#fff9c4;fill-opacity:1;fill-rule:nonzero;stroke:none"
           d="M 0,0 C 3.345,-3.076 6.242,-3.062 7.529,-0.461 8.807,2.104 7.796,6.202 4.138,9.132 0.476,12.051 -6.154,10.788 -6.146,10.816 -6.064,10.841 -3.256,3.12 0,0" /></g><g
         transform="translate(734.9593,592.1815)"
         id="g4035"><path
           inkscape:connector-curvature="0"
           id="path4037"
           style="fill:#fff9c4;fill-opacity:1;fill-rule:nonzero;stroke:none"
           d="m 0,0 c -3.652,-3.336 -6.525,-2.702 -7.553,-0.069 -1.04,2.671 -0.001,6.432 3.321,9.929 3.311,3.506 9.956,3.689 9.97,3.662 C 5.845,13.503 3.769,3.293 0,0" /></g><g
         transform="translate(719.3193,593.8422)"
         id="g4039"><path
           inkscape:connector-curvature="0"
           id="path4041"
           style="fill:#fff9c4;fill-opacity:1;fill-rule:nonzero;stroke:none"
           d="M 0,0 C 2.825,-3.56 5.685,-4.004 7.356,-1.646 9.013,0.679 8.651,4.873 5.504,8.33 2.35,11.776 -4.385,11.582 -4.373,11.608 -4.291,11.622 -2.733,3.591 0,0" /></g><g
         transform="translate(731.5087,573.9727)"
         id="g4043"><path
           inkscape:connector-curvature="0"
           id="path4045"
           style="fill:#fff9c4;fill-opacity:1;fill-rule:nonzero;stroke:none"
           d="M 0,0 C -4.112,-2.719 -6.85,-1.64 -7.461,1.127 -8.078,3.93 -6.48,7.482 -2.666,10.406 1.138,13.341 7.724,12.469 7.732,12.44 7.834,12.406 4.22,2.662 0,0" /></g><g
         transform="translate(716.3337,578.0872)"
         id="g4047"><path
           inkscape:connector-curvature="0"
           id="path4049"
           style="fill:#fff9c4;fill-opacity:1;fill-rule:nonzero;stroke:none"
           d="m 0,0 c 2.243,-3.965 4.996,-4.857 7.005,-2.79 1.99,2.037 2.274,6.236 -0.3,10.144 -2.583,3.899 -9.257,4.773 -9.241,4.797 C -2.455,12.154 -2.148,3.984 0,0" /></g><g
         transform="translate(725.3153,556.4999)"
         id="g4051"><path
           inkscape:connector-curvature="0"
           id="path4053"
           style="fill:#fff9c4;fill-opacity:1;fill-rule:nonzero;stroke:none"
           d="m 0,0 c -4.477,-2.045 -7.012,-0.544 -7.189,2.293 -0.177,2.875 1.947,6.14 6.156,8.431 4.202,2.302 10.564,0.398 10.568,0.369 C 9.631,11.045 4.576,1.973 0,0" /></g><g
         transform="translate(710.975,562.9693)"
         id="g4055"><path
           inkscape:connector-curvature="0"
           id="path4057"
           style="fill:#fff9c4;fill-opacity:1;fill-rule:nonzero;stroke:none"
           d="M 0,0 C 1.601,-4.282 4.181,-5.6 6.482,-3.868 8.76,-2.164 9.685,1.949 7.744,6.223 5.792,10.488 -0.658,12.406 -0.639,12.428 -0.558,12.419 -1.505,4.287 0,0" /></g><g
         transform="translate(716.4756,540.1556)"
         id="g4059"><path
           inkscape:connector-curvature="0"
           id="path4061"
           style="fill:#fff9c4;fill-opacity:1;fill-rule:nonzero;stroke:none"
           d="m 0,0 c -4.75,-1.325 -7.019,0.563 -6.742,3.405 0.281,2.879 2.892,5.783 7.404,7.391 4.507,1.62 10.491,-1.271 10.49,-1.3 C 11.242,9.435 4.84,1.238 0,0" /></g><g
         transform="translate(703.3266,548.8277)"
         id="g4063"><path
           inkscape:connector-curvature="0"
           id="path4065"
           style="fill:#fff9c4;fill-opacity:1;fill-rule:nonzero;stroke:none"
           d="M 0,0 C 0.904,-4.499 3.244,-6.212 5.794,-4.856 8.317,-3.525 9.878,0.409 8.625,4.951 7.362,9.487 1.291,12.404 1.314,12.422 1.395,12.401 -0.805,4.489 0,0" /></g><g
         transform="translate(705.0856,525.3319)"
         id="g4067"><path
           inkscape:connector-curvature="0"
           id="path4069"
           style="fill:#fff9c4;fill-opacity:1;fill-rule:nonzero;stroke:none"
           d="m 0,0 c -4.933,-0.568 -6.873,1.662 -6.127,4.437 0.756,2.813 3.82,5.283 8.544,6.169 4.72,0.899 10.175,-2.909 10.17,-2.938 C 12.672,7.592 5.014,0.468 0,0" /></g><g
         transform="translate(693.4716,536.0016)"
         id="g4071"><path
           inkscape:connector-curvature="0"
           id="path4073"
           style="fill:#fff9c4;fill-opacity:1;fill-rule:nonzero;stroke:none"
           d="m 0,0 c 0.153,-4.605 2.19,-6.672 4.947,-5.729 2.724,0.925 4.914,4.583 4.406,9.285 -0.52,4.698 -6.06,8.546 -6.034,8.56 C 3.399,12.084 -0.052,4.58 0,0" /></g><g
         transform="translate(691.2415,512.4208)"
         id="g4075"><path
           inkscape:connector-curvature="0"
           id="path4077"
           style="fill:#fff9c4;fill-opacity:1;fill-rule:nonzero;stroke:none"
           d="m 0,0 c -5.029,0.215 -6.581,2.731 -5.35,5.365 1.246,2.669 4.727,4.637 9.576,4.773 4.846,0.149 9.626,-4.486 9.618,-4.514 C 13.923,5.536 5.101,-0.327 0,0" /></g><g
         transform="translate(681.4933,524.8306)"
         id="g4079"><path
           inkscape:connector-curvature="0"
           id="path4081"
           style="fill:#fff9c4;fill-opacity:1;fill-rule:nonzero;stroke:none"
           d="m 0,0 c -0.649,-4.59 1.025,-6.96 3.946,-6.46 2.885,0.488 5.699,3.77 5.986,8.514 0.274,4.742 -4.591,9.43 -4.561,9.441 C 5.451,11.449 0.751,4.549 0,0" /></g><g
         transform="translate(675.0399,501.8146)"
         id="g4083"><path
           inkscape:connector-curvature="0"
           id="path4085"
           style="fill:#fff9c4;fill-opacity:1;fill-rule:nonzero;stroke:none"
           d="m 0,0 c -5.04,1.012 -6.148,3.751 -4.417,6.164 1.75,2.445 5.614,3.843 10.503,3.211 4.886,-0.618 8.853,-5.967 8.84,-5.993 C 15,3.281 5.104,-1.136 0,0" /></g><g
         transform="translate(667.475,515.6537)"
         id="g4087"><path
           inkscape:connector-curvature="0"
           id="path4089"
           style="fill:#fff9c4;fill-opacity:1;fill-rule:nonzero;stroke:none"
           d="M 0,0 C -1.501,-4.443 -0.246,-7.056 2.799,-7.025 5.803,-7 9.233,-4.194 10.366,0.462 11.484,5.119 7.434,10.534 7.467,10.54 7.547,10.481 1.604,4.385 0,0" /></g><g
         transform="translate(656.5767,493.9053)"
         id="g4091"><path
           inkscape:connector-curvature="0"
           id="path4093"
           style="fill:#fff9c4;fill-opacity:1;fill-rule:nonzero;stroke:none"
           d="M 0,0 C -4.97,1.812 -5.578,4.7 -3.335,6.807 -1.067,8.944 3.146,9.707 7.992,8.301 12.838,6.909 15.855,0.982 15.839,0.958 15.907,0.845 5.025,-1.947 0,0" /></g><g
         transform="translate(651.5001,508.8104)"
         id="g4095"><path
           inkscape:connector-curvature="0"
           id="path4097"
           style="fill:#fff9c4;fill-opacity:1;fill-rule:nonzero;stroke:none"
           d="m 0,0 c -2.396,-4.152 -1.62,-6.938 1.511,-7.398 3.085,-0.46 7.124,1.765 9.147,6.194 C 12.667,3.227 9.567,9.235 9.602,9.235 9.68,9.163 2.502,4.077 0,0" /></g><g
         transform="translate(661.6125,517.741)"
         id="g4099"><path
           inkscape:connector-curvature="0"
           id="path4101"
           style="fill:none;stroke:#fff9c4;stroke-width:2;stroke-linecap:round;stroke-linejoin:round;stroke-miterlimit:10;stroke-dasharray:none;stroke-opacity:1"
           d="M 0,0 C 62.273,29.982 75.515,121.255 13.113,165.404" /></g><g
         transform="translate(672.5676,495.4842)"
         id="g4103"><path
           inkscape:connector-curvature="0"
           id="path4105"
           style="fill:none;stroke:#fff9c4;stroke-width:2;stroke-linecap:round;stroke-linejoin:round;stroke-miterlimit:10;stroke-dasharray:none;stroke-opacity:1"
           d="M 0,0 C 78.248,37.673 94.886,152.36 16.476,207.834" /></g><g
         transform="translate(633.6047,496.9822)"
         id="g4107"><path
           inkscape:connector-curvature="0"
           id="path4109"
           style="fill:none;stroke:#fff9c4;stroke-width:2;stroke-linecap:round;stroke-linejoin:round;stroke-miterlimit:10;stroke-dasharray:none;stroke-opacity:1"
           d="M 0,0 C 90.449,12.223 123.6,121.737 63.68,182.803" /></g><g
         transform="translate(723.9321,652.6106)"
         id="g4111"><path
           inkscape:connector-curvature="0"
           id="path4113"
           style="fill:none;stroke:#fff9c4;stroke-width:2;stroke-linecap:round;stroke-linejoin:round;stroke-miterlimit:10;stroke-dasharray:none;stroke-opacity:1"
           d="M 0,0 C -6.685,14.601 -16.751,28.169 -30.46,39.634" /></g><g
         transform="translate(712.4547,647.3533)"
         id="g4115"><path
           inkscape:connector-curvature="0"
           id="path4117"
           style="fill:none;stroke:#fff9c4;stroke-width:2;stroke-linecap:round;stroke-linejoin:round;stroke-miterlimit:10;stroke-dasharray:none;stroke-opacity:1"
           d="M 0,0 C -5.955,13.005 -14.92,25.091 -27.131,35.303" /></g><g
         transform="translate(498.6068,664.2937)"
         id="g4119"><path
           inkscape:connector-curvature="0"
           id="path4121"
           style="fill:#fff9c4;fill-opacity:1;fill-rule:nonzero;stroke:none"
           d="m 0,0 c -3.333,-5.344 -3.16,-9.294 -1.171,-10.277 2.041,-1.002 5.017,1.081 8.079,5.982 2.936,4.861 4.776,13.54 4.874,13.586 C 11.795,9.38 3.323,5.448 0,0" /></g><g
         transform="translate(485.7843,647.3037)"
         id="g4123"><path
           inkscape:connector-curvature="0"
           id="path4125"
           style="fill:#fff9c4;fill-opacity:1;fill-rule:nonzero;stroke:none"
           d="M 0,0 C 1.673,-4.728 4.53,-5.488 6.682,-3.576 8.864,-1.635 9.733,2.272 8.488,7.014 7.259,11.76 1.456,15.025 1.429,15.006 1.302,15.031 -1.821,4.736 0,0" /></g><g
         transform="translate(500.4718,641.5358)"
         id="g4127"><path
           inkscape:connector-curvature="0"
           id="path4129"
           style="fill:#fff9c4;fill-opacity:1;fill-rule:nonzero;stroke:none"
           d="m 0,0 c -4.19,-1.919 -6.939,-0.99 -7.316,1.927 -0.378,2.882 1.943,6.531 6.422,8.225 C 3.59,11.834 9.482,8.522 9.482,8.552 9.401,8.597 4.107,1.984 0,0" /></g><g
         transform="translate(480.429,629.2392)"
         id="g4131"><path
           inkscape:connector-curvature="0"
           id="path4133"
           style="fill:#fff9c4;fill-opacity:1;fill-rule:nonzero;stroke:none"
           d="M 0,0 C 2.435,-4.35 5.37,-4.647 7.169,-2.445 8.992,-0.211 9.187,3.731 7.147,8.148 5.121,12.57 -1.139,14.844 -1.162,14.822 -1.282,14.832 -2.573,4.341 0,0" /></g><g
         transform="translate(495.8383,625.9057)"
         id="g4135"><path
           inkscape:connector-curvature="0"
           id="path4137"
           style="fill:#fff9c4;fill-opacity:1;fill-rule:nonzero;stroke:none"
           d="M 0,0 C -3.801,-2.526 -6.662,-2.05 -7.518,0.738 -8.37,3.49 -6.706,7.406 -2.603,9.745 1.504,12.072 7.855,9.763 7.85,9.791 7.768,9.827 3.715,2.581 0,0" /></g><g
         transform="translate(478.1053,610.7344)"
         id="g4139"><path
           inkscape:connector-curvature="0"
           id="path4141"
           style="fill:#fff9c4;fill-opacity:1;fill-rule:nonzero;stroke:none"
           d="m 0,0 c 3.093,-3.883 6.033,-3.712 7.457,-1.268 1.442,2.479 1.001,6.372 -1.73,10.37 -2.719,4.005 -9.259,5.245 -9.276,5.22 C -3.664,14.317 -3.22,3.857 0,0" /></g><g
         transform="translate(493.8277,609.8947)"
         id="g4143"><path
           inkscape:connector-curvature="0"
           id="path4145"
           style="fill:#fff9c4;fill-opacity:1;fill-rule:nonzero;stroke:none"
           d="m 0,0 c -3.345,-3.076 -6.242,-3.062 -7.529,-0.461 -1.278,2.565 -0.267,6.663 3.391,9.593 3.662,2.919 10.292,1.656 10.284,1.684 C 6.064,10.841 3.256,3.12 0,0" /></g><g
         transform="translate(478.7169,592.1815)"
         id="g4147"><path
           inkscape:connector-curvature="0"
           id="path4149"
           style="fill:#fff9c4;fill-opacity:1;fill-rule:nonzero;stroke:none"
           d="M 0,0 C 3.652,-3.336 6.525,-2.702 7.553,-0.069 8.593,2.602 7.554,6.363 4.232,9.86 0.921,13.366 -5.724,13.549 -5.738,13.522 -5.845,13.503 -3.769,3.293 0,0" /></g><g
         transform="translate(494.3569,593.8422)"
         id="g4151"><path
           inkscape:connector-curvature="0"
           id="path4153"
           style="fill:#fff9c4;fill-opacity:1;fill-rule:nonzero;stroke:none"
           d="m 0,0 c -2.825,-3.56 -5.685,-4.004 -7.356,-1.646 -1.657,2.325 -1.295,6.519 1.852,9.976 3.154,3.446 9.889,3.252 9.877,3.278 C 4.291,11.622 2.733,3.591 0,0" /></g><g
         transform="translate(482.1675,573.9727)"
         id="g4155"><path
           inkscape:connector-curvature="0"
           id="path4157"
           style="fill:#fff9c4;fill-opacity:1;fill-rule:nonzero;stroke:none"
           d="M 0,0 C 4.112,-2.719 6.85,-1.64 7.461,1.127 8.078,3.93 6.48,7.482 2.666,10.406 -1.138,13.341 -7.724,12.469 -7.732,12.44 -7.834,12.406 -4.22,2.662 0,0" /></g><g
         transform="translate(497.3424,578.0872)"
         id="g4159"><path
           inkscape:connector-curvature="0"
           id="path4161"
           style="fill:#fff9c4;fill-opacity:1;fill-rule:nonzero;stroke:none"
           d="m 0,0 c -2.243,-3.965 -4.996,-4.857 -7.005,-2.79 -1.99,2.037 -2.274,6.236 0.3,10.144 2.583,3.899 9.257,4.773 9.241,4.797 C 2.455,12.154 2.148,3.984 0,0" /></g><g
         transform="translate(488.3608,556.4999)"
         id="g4163"><path
           inkscape:connector-curvature="0"
           id="path4165"
           style="fill:#fff9c4;fill-opacity:1;fill-rule:nonzero;stroke:none"
           d="M 0,0 C 4.477,-2.045 7.012,-0.544 7.189,2.293 7.366,5.168 5.243,8.433 1.033,10.724 -3.169,13.026 -9.531,11.122 -9.535,11.093 -9.631,11.045 -4.576,1.973 0,0" /></g><g
         transform="translate(502.7011,562.9693)"
         id="g4167"><path
           inkscape:connector-curvature="0"
           id="path4169"
           style="fill:#fff9c4;fill-opacity:1;fill-rule:nonzero;stroke:none"
           d="m 0,0 c -1.601,-4.282 -4.181,-5.6 -6.482,-3.868 -2.278,1.704 -3.203,5.817 -1.262,10.091 1.952,4.265 8.402,6.183 8.383,6.205 C 0.558,12.419 1.505,4.287 0,0" /></g><g
         transform="translate(497.2006,540.1556)"
         id="g4171"><path
           inkscape:connector-curvature="0"
           id="path4173"
           style="fill:#fff9c4;fill-opacity:1;fill-rule:nonzero;stroke:none"
           d="M 0,0 C 4.75,-1.325 7.019,0.563 6.742,3.405 6.461,6.284 3.85,9.188 -0.662,10.796 -5.169,12.416 -11.153,9.525 -11.152,9.496 -11.242,9.435 -4.84,1.238 0,0" /></g><g
         transform="translate(510.3496,548.8277)"
         id="g4175"><path
           inkscape:connector-curvature="0"
           id="path4177"
           style="fill:#fff9c4;fill-opacity:1;fill-rule:nonzero;stroke:none"
           d="m 0,0 c -0.904,-4.499 -3.244,-6.212 -5.794,-4.856 -2.523,1.331 -4.084,5.265 -2.831,9.807 1.263,4.536 7.334,7.453 7.311,7.471 C -1.395,12.401 0.805,4.489 0,0" /></g><g
         transform="translate(508.5906,525.3319)"
         id="g4179"><path
           inkscape:connector-curvature="0"
           id="path4181"
           style="fill:#fff9c4;fill-opacity:1;fill-rule:nonzero;stroke:none"
           d="M 0,0 C 4.933,-0.568 6.873,1.662 6.127,4.437 5.371,7.25 2.307,9.72 -2.417,10.606 -7.137,11.505 -12.592,7.697 -12.587,7.668 -12.672,7.592 -5.014,0.468 0,0" /></g><g
         transform="translate(520.2046,536.0016)"
         id="g4183"><path
           inkscape:connector-curvature="0"
           id="path4185"
           style="fill:#fff9c4;fill-opacity:1;fill-rule:nonzero;stroke:none"
           d="m 0,0 c -0.153,-4.605 -2.19,-6.672 -4.947,-5.729 -2.724,0.925 -4.914,4.583 -4.406,9.285 0.52,4.698 6.06,8.546 6.034,8.56 C -3.399,12.084 0.052,4.58 0,0" /></g><g
         transform="translate(522.4346,512.4208)"
         id="g4187"><path
           inkscape:connector-curvature="0"
           id="path4189"
           style="fill:#fff9c4;fill-opacity:1;fill-rule:nonzero;stroke:none"
           d="M 0,0 C 5.029,0.215 6.581,2.731 5.35,5.365 4.104,8.034 0.623,10.002 -4.226,10.138 -9.072,10.287 -13.852,5.652 -13.844,5.624 -13.923,5.536 -5.101,-0.327 0,0" /></g><g
         transform="translate(532.1829,524.8306)"
         id="g4191"><path
           inkscape:connector-curvature="0"
           id="path4193"
           style="fill:#fff9c4;fill-opacity:1;fill-rule:nonzero;stroke:none"
           d="m 0,0 c 0.649,-4.59 -1.025,-6.96 -3.946,-6.46 -2.885,0.488 -5.699,3.77 -5.986,8.514 -0.274,4.742 4.59,9.43 4.561,9.441 C -5.451,11.449 -0.751,4.549 0,0" /></g><g
         transform="translate(538.6364,501.8146)"
         id="g4195"><path
           inkscape:connector-curvature="0"
           id="path4197"
           style="fill:#fff9c4;fill-opacity:1;fill-rule:nonzero;stroke:none"
           d="M 0,0 C 5.04,1.012 6.148,3.751 4.417,6.164 2.667,8.609 -1.197,10.007 -6.086,9.375 -10.972,8.757 -14.939,3.408 -14.926,3.382 -15,3.281 -5.104,-1.136 0,0" /></g><g
         transform="translate(546.2012,515.6537)"
         id="g4199"><path
           inkscape:connector-curvature="0"
           id="path4201"
           style="fill:#fff9c4;fill-opacity:1;fill-rule:nonzero;stroke:none"
           d="M 0,0 C 1.501,-4.443 0.246,-7.056 -2.799,-7.025 -5.803,-7 -9.233,-4.194 -10.366,0.462 -11.484,5.119 -7.434,10.534 -7.467,10.54 -7.547,10.481 -1.604,4.385 0,0" /></g><g
         transform="translate(557.0994,493.9053)"
         id="g4203"><path
           inkscape:connector-curvature="0"
           id="path4205"
           style="fill:#fff9c4;fill-opacity:1;fill-rule:nonzero;stroke:none"
           d="M 0,0 C 4.97,1.812 5.578,4.7 3.335,6.807 1.067,8.944 -3.146,9.707 -7.992,8.301 -12.838,6.909 -15.855,0.982 -15.839,0.958 -15.907,0.845 -5.025,-1.947 0,0" /></g><g
         transform="translate(562.176,508.8104)"
         id="g4207"><path
           inkscape:connector-curvature="0"
           id="path4209"
           style="fill:#fff9c4;fill-opacity:1;fill-rule:nonzero;stroke:none"
           d="m 0,0 c 2.396,-4.152 1.62,-6.938 -1.511,-7.398 -3.085,-0.46 -7.124,1.765 -9.147,6.194 -2.009,4.431 1.091,10.439 1.056,10.439 C -9.68,9.163 -2.502,4.077 0,0" /></g><g
         transform="translate(552.0636,517.741)"
         id="g4211"><path
           inkscape:connector-curvature="0"
           id="path4213"
           style="fill:none;stroke:#fff9c4;stroke-width:2;stroke-linecap:round;stroke-linejoin:round;stroke-miterlimit:10;stroke-dasharray:none;stroke-opacity:1"
           d="M 0,0 C -62.273,29.982 -75.515,121.255 -13.113,165.404" /></g><g
         transform="translate(541.1086,495.4842)"
         id="g4215"><path
           inkscape:connector-curvature="0"
           id="path4217"
           style="fill:none;stroke:#fff9c4;stroke-width:2;stroke-linecap:round;stroke-linejoin:round;stroke-miterlimit:10;stroke-dasharray:none;stroke-opacity:1"
           d="M 0,0 C -78.248,37.673 -94.886,152.36 -16.476,207.834" /></g><g
         transform="translate(580.0715,496.9822)"
         id="g4219"><path
           inkscape:connector-curvature="0"
           id="path4221"
           style="fill:none;stroke:#fff9c4;stroke-width:2;stroke-linecap:round;stroke-linejoin:round;stroke-miterlimit:10;stroke-dasharray:none;stroke-opacity:1"
           d="M 0,0 C -90.449,12.223 -123.6,121.737 -63.68,182.803" /></g><g
         transform="translate(489.7441,652.6106)"
         id="g4223"><path
           inkscape:connector-curvature="0"
           id="path4225"
           style="fill:none;stroke:#fff9c4;stroke-width:2;stroke-linecap:round;stroke-linejoin:round;stroke-miterlimit:10;stroke-dasharray:none;stroke-opacity:1"
           d="M 0,0 C 6.685,14.601 16.751,28.169 30.46,39.634" /></g><g
         transform="translate(501.2215,647.3533)"
         id="g4227"><path
           inkscape:connector-curvature="0"
           id="path4229"
           style="fill:none;stroke:#fff9c4;stroke-width:2;stroke-linecap:round;stroke-linejoin:round;stroke-miterlimit:10;stroke-dasharray:none;stroke-opacity:1"
           d="M 0,0 C 5.954,13.005 14.92,25.091 27.131,35.303" /></g><g
         transform="translate(651.8188,567.0639)"
         id="g4231"><path
           inkscape:connector-curvature="0"
           id="path4233"
           style="fill:none;stroke:#fff9c4;stroke-width:7;stroke-linecap:butt;stroke-linejoin:miter;stroke-miterlimit:10;stroke-dasharray:none;stroke-opacity:1"
           d="m 0,0 -16.833,-3.606 v 52.057 h 15.086 c 4.605,0 8.339,-3.733 8.339,-8.338 V 8.154 C 6.592,4.221 3.845,0.824 0,0 Z" /></g><g
         transform="translate(638.0919,538.1296)"
         id="g4235"><path
           inkscape:connector-curvature="0"
           id="path4237"
           style="fill:#fff9c4;fill-opacity:1;fill-rule:nonzero;stroke:none"
           d="m 0,0 v 102.097 c -0.967,-0.243 -1.973,-0.386 -3.013,-0.386 -2.65,0 -5.167,0.824 -7.268,2.352 -3.558,-3.163 -8.176,-4.945 -12.953,-4.945 -3.732,0 -7.3,1.042 -10.421,3.031 -2.908,-2.568 -6.667,-4.012 -10.566,-4.012 -3.481,0 -6.824,1.128 -9.582,3.207 -2.509,-1.671 -5.468,-2.576 -8.499,-2.576 -2.387,0 -4.64,0.563 -6.657,1.54 V 0 l -3.801,-10.049 c -1.008,-2.665 0.961,-5.515 3.81,-5.515 h 68.941 c 2.849,0 4.818,2.85 3.81,5.515 z" /></g><g
         transform="translate(573.9678,535.0174)"
         id="g4239"><path
           inkscape:connector-curvature="0"
           id="path4241"
           style="fill:#ffb300;fill-opacity:1;fill-rule:nonzero;stroke:none"
           d="M 0,0 -2.733,-7.226 H 62.022 L 59.289,0 Z" /></g><g
         transform="translate(618.4692,620.0428)"
         id="g4243"><path
           inkscape:connector-curvature="0"
           id="path4245"
           style="fill:#ffb300;fill-opacity:1;fill-rule:nonzero;stroke:none"
           d="m 0,0 v -26.302 c 0,-1.867 -1.365,-3.534 -3.223,-3.711 -2.132,-0.203 -3.925,1.468 -3.925,3.557 V 0 c 0,3.348 -2.714,6.062 -6.062,6.062 H -43.8 v -87.14 H 14.086 V 6.062 H 6.062 C 2.714,6.062 0,3.348 0,0" /></g><g
         transform="translate(635.0784,663.3877)"
         id="g4247"><path
           inkscape:connector-curvature="0"
           id="path4249"
           style="fill:#fff9c4;fill-opacity:1;fill-rule:nonzero;stroke:none"
           d="M 0,0 C -1.26,0 -2.462,-0.237 -3.578,-0.652 -5.769,6.46 -12.39,11.63 -20.22,11.63 c -4.104,0 -7.869,-1.429 -10.845,-3.804 -2.381,3.523 -6.412,5.84 -10.983,5.84 -6.685,0 -12.197,-4.957 -13.101,-11.391 -1.303,0.428 -2.692,0.668 -4.139,0.668 -7.315,0 -13.246,-5.93 -13.246,-13.245 0,-7.315 5.931,-13.245 13.246,-13.245 3.271,0 6.261,1.192 8.572,3.158 2.484,-2.343 5.824,-3.789 9.509,-3.789 4.111,0 7.794,1.799 10.335,4.64 2.946,-2.285 6.635,-3.658 10.652,-3.658 5.099,0 9.671,2.205 12.856,5.697 1.87,-1.913 4.477,-3.105 7.364,-3.105 5.69,0 10.302,4.613 10.302,10.302 C 10.302,-4.612 5.69,0 0,0" /></g><g
         transform="translate(589.6602,547.4302)"
         id="g4251"><path
           inkscape:connector-curvature="0"
           id="path4253"
           style="fill:#fff9c4;fill-opacity:1;fill-rule:nonzero;stroke:none"
           d="m 0,0 c 0,-1.101 -0.893,-1.994 -1.994,-1.994 -1.102,0 -1.995,0.893 -1.995,1.994 0,1.101 0.893,1.994 1.995,1.994 C -0.893,1.994 0,1.101 0,0" /></g><g
         transform="translate(607.9512,566.6763)"
         id="g4255"><path
           inkscape:connector-curvature="0"
           id="path4257"
           style="fill:#fff9c4;fill-opacity:1;fill-rule:nonzero;stroke:none"
           d="m 0,0 c 0,-1.101 -0.893,-1.994 -1.994,-1.994 -1.102,0 -1.995,0.893 -1.995,1.994 0,1.101 0.893,1.994 1.995,1.994 C -0.893,1.994 0,1.101 0,0" /></g><g
         transform="translate(586.9329,608.6226)"
         id="g4259"><path
           inkscape:connector-curvature="0"
           id="path4261"
           style="fill:#fff9c4;fill-opacity:1;fill-rule:nonzero;stroke:none"
           d="m 0,0 c 0,-0.697 -0.565,-1.261 -1.261,-1.261 -0.697,0 -1.262,0.564 -1.262,1.261 0,0.697 0.565,1.261 1.262,1.261 C -0.565,1.261 0,0.697 0,0" /></g><g
         transform="translate(629.1916,614.191)"
         id="g4263"><path
           inkscape:connector-curvature="0"
           id="path4265"
           style="fill:#fff9c4;fill-opacity:1;fill-rule:nonzero;stroke:none"
           d="m 0,0 c 0,-0.697 -0.565,-1.261 -1.261,-1.261 -0.697,0 -1.262,0.564 -1.262,1.261 0,0.697 0.565,1.261 1.262,1.261 C -0.565,1.261 0,0.697 0,0" /></g><g
         transform="translate(602.5662,599.8528)"
         id="g4267"><path
           inkscape:connector-curvature="0"
           id="path4269"
           style="fill:#fff9c4;fill-opacity:1;fill-rule:nonzero;stroke:none"
           d="m 0,0 c 0,-1.101 -0.893,-1.994 -1.994,-1.994 -1.102,0 -1.995,0.893 -1.995,1.994 0,1.101 0.893,1.994 1.995,1.994 C -0.893,1.994 0,1.101 0,0" /></g><g
         transform="translate(623.4133,580.359)"
         id="g4271"><path
           inkscape:connector-curvature="0"
           id="path4273"
           style="fill:#fff9c4;fill-opacity:1;fill-rule:nonzero;stroke:none"
           d="m 0,0 c 0,-2.121 -1.72,-3.841 -3.841,-3.841 -2.122,0 -3.841,1.72 -3.841,3.841 0,2.121 1.719,3.841 3.841,3.841 C -1.72,3.841 0,2.121 0,0" /></g><g
         transform="translate(590.7741,577.2621)"
         id="g4275"><path
           inkscape:connector-curvature="0"
           id="path4277"
           style="fill:#fff9c4;fill-opacity:1;fill-rule:nonzero;stroke:none"
           d="m 0,0 c 0,-2.121 -1.72,-3.841 -3.841,-3.841 -2.122,0 -3.841,1.72 -3.841,3.841 0,2.121 1.719,3.841 3.841,3.841 C -1.72,3.841 0,2.121 0,0" /></g><g
         transform="translate(625.3055,554.4693)"
         id="g4279"><path
           inkscape:connector-curvature="0"
           id="path4281"
           style="fill:#fff9c4;fill-opacity:1;fill-rule:nonzero;stroke:none"
           d="m 0,0 c 0,-2.121 -1.72,-3.841 -3.841,-3.841 -2.122,0 -3.841,1.72 -3.841,3.841 0,2.121 1.719,3.841 3.841,3.841 C -1.72,3.841 0,2.121 0,0" /></g><g
         transform="translate(602.5662,618.6061)"
         id="g4283"><path
           inkscape:connector-curvature="0"
           id="path4285"
           style="fill:#fff9c4;fill-opacity:1;fill-rule:nonzero;stroke:none"
           d="m 0,0 c 0,-1.101 -0.893,-1.994 -1.994,-1.994 -1.102,0 -1.995,0.893 -1.995,1.994 0,1.102 0.893,1.994 1.995,1.994 C -0.893,1.994 0,1.102 0,0" /></g></g><text
       transform="scale(0.93357407,-1.0711523)"
       style="font-variant:normal;font-weight:bold;font-stretch:normal;font-size:16.62630081px;font-family:'Charis SIL';-inkscape-font-specification:CharisSIL-Bold;font-variant-ligatures:normal;font-variant-caps:normal;font-variant-numeric:normal;font-feature-settings:normal;text-align:start;writing-mode:lr-tb;text-anchor:start;fill:#ffb300;fill-opacity:1;fill-rule:nonzero;stroke:none;stroke-width:0.93357408"
       id="text4289"
       x="155.29536"
       y="-693.32867"><tspan
         sodipodi:role="line"
         id="tspan4653"
         x="155.29536"
         y="-693.32867"
         style="stroke-width:0.93357408">2017</tspan></text>
<g
       id="g4291"
       transform="translate(-438.75001,59.250001)"><g
         id="g4293"
         clip-path="url(#clipPath4297)"><g
           id="g4299"
           transform="translate(631.5966,688.7081)"><path
             d="M 0,0 H 20.09"
             style="fill:none;stroke:#ffb300;stroke-width:2;stroke-linecap:round;stroke-linejoin:round;stroke-miterlimit:10;stroke-dasharray:none;stroke-opacity:1"
             id="path4301"
             inkscape:connector-curvature="0" /></g><g
           id="g4303"
           transform="translate(557.2239,688.7081)"><path
             d="M 0,0 H 20.09"
             style="fill:none;stroke:#ffb300;stroke-width:2;stroke-linecap:round;stroke-linejoin:round;stroke-miterlimit:10;stroke-dasharray:none;stroke-opacity:1"
             id="path4305"
             inkscape:connector-curvature="0" /></g><g
           id="g4307"
           transform="translate(573.4238,723.2655)"><path
             d="m 0,0 3.336,-6.759 7.458,-1.084 -5.397,-5.261 1.274,-7.428 -6.671,3.507 -6.671,-3.507 1.274,7.428 -5.397,5.261 7.458,1.084 z"
             style="fill:#fff9c4;fill-opacity:1;fill-rule:nonzero;stroke:none"
             id="path4309"
             inkscape:connector-curvature="0" /></g><g
           id="g4311"
           transform="translate(604.455,734.6154)"><path
             d="m 0,0 4.876,-9.88 10.904,-1.585 -7.89,-7.69 1.862,-10.86 -9.752,5.127 -9.752,-5.127 1.862,10.86 -7.89,7.69 10.904,1.585 z"
             style="fill:#ffb300;fill-opacity:1;fill-rule:nonzero;stroke:none"
             id="path4313"
             inkscape:connector-curvature="0" /></g><g
           id="g4315"
           transform="translate(635.4862,723.2655)"><path
             d="m 0,0 3.336,-6.759 7.458,-1.084 -5.397,-5.261 1.274,-7.428 -6.671,3.507 -6.671,-3.507 1.274,7.428 -5.397,5.261 7.458,1.084 z"
             style="fill:#fff9c4;fill-opacity:1;fill-rule:nonzero;stroke:none"
             id="path4317"
             inkscape:connector-curvature="0" /></g><g
           id="g4319"
           transform="translate(658.6052,712.2042)"><path
             d="m 0,0 2.446,-4.957 5.47,-0.794 -3.958,-3.858 0.934,-5.448 -4.892,2.572 -4.892,-2.572 0.934,5.448 -3.958,3.858 5.47,0.794 z"
             style="fill:#ffb300;fill-opacity:1;fill-rule:nonzero;stroke:none"
             id="path4321"
             inkscape:connector-curvature="0" /></g><g
           id="g4323"
           transform="translate(550.3048,712.2042)"><path
             d="m 0,0 2.446,-4.957 5.47,-0.794 -3.958,-3.858 0.934,-5.448 -4.892,2.572 -4.892,-2.572 0.934,5.448 -3.958,3.858 5.47,0.794 z"
             style="fill:#ffb300;fill-opacity:1;fill-rule:nonzero;stroke:none"
             id="path4325"
             inkscape:connector-curvature="0" /></g><path
           d="M 719.612,469.539 H 487.967 v 47.734 h 231.645 z"
           style="fill:#ffb300;fill-opacity:1;fill-rule:nonzero;stroke:none"
           id="path4327"
           inkscape:connector-curvature="0" /><g
           id="g4329"
           transform="translate(481.6385,501.6778)"><path
             d="m 0,0 h -14.377 -14.378 l 11.041,-11.934 -11.041,-11.933 11.041,-11.934 -11.041,-11.933 H -14.377 0 14.377 28.755 L 6.328,-32.139 V 0 Z"
             style="fill:#fff9c4;fill-opacity:1;fill-rule:nonzero;stroke:none"
             id="path4331"
             inkscape:connector-curvature="0" /></g><g
           id="g4333"
           transform="translate(744.9862,489.7442)"><path
             d="m 0,0 11.041,11.934 h -14.378 -14.377 -7.66 v -32.139 l -21.095,-15.596 h 14.378 14.377 14.377 14.378 L 0,-23.867 11.041,-11.934 Z"
             style="fill:#fff9c4;fill-opacity:1;fill-rule:nonzero;stroke:none"
             id="path4335"
             inkscape:connector-curvature="0" /></g></g></g><text
       transform="scale(1,-1)"
       style="font-variant:normal;font-weight:bold;font-stretch:normal;font-size:29.10759926px;font-family:'Charis SIL';-inkscape-font-specification:CharisSIL-Bold;font-variant-ligatures:normal;font-variant-caps:normal;font-variant-numeric:normal;font-feature-settings:normal;text-align:start;writing-mode:lr-tb;text-anchor:start;fill:#4e342e;fill-opacity:1;fill-rule:nonzero;stroke:none"
       id="text4339"
       x="68.402306"
       y="-542.82861"><tspan
         sodipodi:role="line"
         id="tspan4647"
         x="68.402306"
         y="-542.82861">CHOPPCOIN</tspan></text>
</g></svg>